# xmcd
#
# Track frame offsets: 
#        150
#        18536
#        38857
#        75661
#        104803
#        120423
#        146688
#        209641
#
# Disc length: 3303 seconds
#
# Revision: 0
# Processed by: cddbd v1.5.2PL0 Copyright (c) Steve Scherf et al.
# Submitted via: ExactAudioCopy v0.99pb5
#
DISCID=710ce508
DTITLE=The Marshall Tucker Band - Live from San Francisco 1973
DYEAR=1973
DGENRE=Country
TTITLE0=Hillbilly Band
TTITLE1=Another Cruel Love
TTITLE2=Take the Highway
TTITLE3=Can't You See
TTITLE4=See You Later, I am Gone
TTITLE5=Ramblin'
TTITLE6=Everday (I have the Blues)
TTITLE7=24 Hours At A Time
EXTD=
EXTT0=
EXTT1=
EXTT2=
EXTT3=
EXTT4=
EXTT5=
EXTT6=
EXTT7=
PLAYORDER=
